<svg xmlns="http://www.w3.org/2000/svg" viewBox="0 0 342.24 65.01"><defs><style>.cls-1,.cls-2{fill:#231f20;}.cls-2{font-size:42px;font-family:Sansation-Bold, Sansation;font-weight:700;}.cls-3{letter-spacing:-0.07em;}</style></defs><title>Asset 9</title><g id="Layer_2" data-name="Layer 2"><g id="Layer_1-2" data-name="Layer 1"><path class="cls-1" d="M332.72,64.05l-49.53.18-49.54.38q-49.53.42-99.07.38t-99.07-.1l-24.77-.06H10l-.85,0a9.32,9.32,0,0,1-1.66-.3,10,10,0,0,1-3.07-1.39A10.28,10.28,0,0,1,.44,57.76,11,11,0,0,1,0,54.46v-3.1l0-6.19L.15,20.4l0-6.19V11.12A14.32,14.32,0,0,1,.45,7.9,9.78,9.78,0,0,1,10,.33c33,.16,66.05.3,99.07.2L133.84.47,158.61.32,208.14.05q49.55-.15,99.07.2L332,.44a10.07,10.07,0,0,1,6.1,1.68,9.7,9.7,0,0,1,3.75,5.09,10.68,10.68,0,0,1,.41,3.16l0,3.1,0,6.19-.1,24.77,0,6.19v3.1a13.52,13.52,0,0,1-.25,3.1,9.3,9.3,0,0,1-9.09,7.23Zm0-.2a9.15,9.15,0,0,0,5.66-2,9,9,0,0,0,3.17-5.08,13,13,0,0,0,.23-3.05v-3.1l0-6.19-.1-24.77,0-6.19,0-3.1a10.13,10.13,0,0,0-.43-2.95,9,9,0,0,0-3.52-4.64A9.25,9.25,0,0,0,332,1.32l-24.77.19q-49.53.39-99.07.2l-49.53-.27-24.77-.15-24.77-.07c-33-.1-66,0-99.07.21A8.62,8.62,0,0,0,1.63,8.17a12.34,12.34,0,0,0-.2,2.95v3.09l0,6.19.11,24.77,0,6.19,0,3.1A9.69,9.69,0,0,0,2,57.27a8.57,8.57,0,0,0,3.33,4.41,8.32,8.32,0,0,0,2.55,1.13,9.27,9.27,0,0,0,1.38.24l.7,0h.77L35.51,63q49.53-.1,99.07-.09t99.07.38l49.54.38Z"/><text class="cls-2" transform="translate(37.21 48.48)">GET S<tspan class="cls-3" x="111.62" y="0">T</tspan><tspan x="130.8" y="0">ARTED</tspan></text></g></g></svg>