<svg xmlns="http://www.w3.org/2000/svg" viewBox="0 0 177.43 52.35"><defs><style>.cls-1{font-size:38px;fill:#414042;font-family:Sansation-Bold, Sansation;font-weight:700;}.cls-2{fill:#231f20;}</style></defs><title>Asset 2</title><g id="Layer_2" data-name="Layer 2"><g id="Layer_1-2" data-name="Layer 1"><text class="cls-1" transform="translate(22.83 40.69)">ABOUT</text><path class="cls-2" d="M167.73,51.41c-9.11.06-18.21.06-27.32.17L113.09,52q-27.32.42-54.63.38H31.15L17.49,52.3l-6.83,0a14.57,14.57,0,0,1-1.82-.09A10.62,10.62,0,0,1,7,51.77,9.89,9.89,0,0,1,3.72,50a10.13,10.13,0,0,1-3.61-6.4A7.3,7.3,0,0,1,0,42.64c0-.31,0-.62,0-.9V40l0-3.42L.12,23c0-4.57,0-9,.15-13.71A9.82,9.82,0,0,1,10.1.34C28.31.51,46.52.65,64.73.55L78.39.48,92.05.34,119.36.06c9.11,0,18.21-.11,27.32,0l13.66.08,6.82.06a11.09,11.09,0,0,1,3.58.52,9.61,9.61,0,0,1,3.17,1.77,9.78,9.78,0,0,1,3.43,6.22,27.22,27.22,0,0,1,.06,3.48l0,3.42-.18,13.65c-.1,4.56,0,9.1-.14,13.67a9.34,9.34,0,0,1-9.31,8.51Zm0-.2a9.18,9.18,0,0,0,6.12-2.43,9,9,0,0,0,2.86-5.9c0-4.53,0-9.1-.05-13.65l-.18-13.65,0-3.42a25.59,25.59,0,0,0-.15-3.33,8.6,8.6,0,0,0-9.12-7.22l-6.82.06-13.66.09c-9.11.07-18.21,0-27.32,0L92.05,1.45,78.39,1.3,64.73,1.24c-18.21-.1-36.42,0-54.63.2A8.61,8.61,0,0,0,1.63,9.37c0,.51,0,1.07,0,1.64l0,1.71,0,3.42L1.7,23l.09,13.66,0,3.42a28.38,28.38,0,0,0,.11,3.27A8.24,8.24,0,0,0,7.58,50a8.5,8.5,0,0,0,1.5.31,13.13,13.13,0,0,0,1.58.07l6.83,0,13.66-.05H58.46q27.32,0,54.63.38l27.32.38C149.52,51.14,158.62,51.14,167.73,51.21Z"/></g></g></svg>