<svg xmlns="http://www.w3.org/2000/svg" viewBox="0 0 342.37 76.6"><defs><style>.cls-1,.cls-2{fill:#231f20;}.cls-2{font-size:36px;font-family:Sansation-Bold, Sansation;font-weight:700;}.cls-3{letter-spacing:-0.07em;}</style></defs><title>Asset 18</title><g id="Layer_2" data-name="Layer 2"><g id="Layer_1-2" data-name="Layer 1"><path class="cls-1" d="M332.77,75.64l-51,.18-51,.38q-51,.42-102,.37-51,.11-102-.09l-12.74,0H10.93a12.46,12.46,0,0,1-3.38-.33,10.08,10.08,0,0,1-7.16-7,11,11,0,0,1-.34-1.71c0-.58-.06-1.17,0-1.68l0-6.37L.09,46.62.2,21.13l0-6.38,0-3.18V10l0-.85c0-.28.08-.56.12-.84A9.76,9.76,0,0,1,10,.33c34,.16,68,.3,102,.2L137.5.47,163,.32l51-.27q51-.15,102,.2L328.7.34l3.18,0a11.91,11.91,0,0,1,3.28.33,9.58,9.58,0,0,1,5.4,3.72,9.87,9.87,0,0,1,1.8,6.26l-.05,6.37-.09,12.75-.1,25.49v9.56a17.18,17.18,0,0,1-.17,3.2,9.28,9.28,0,0,1-9.16,7.59Zm0-.2a9.06,9.06,0,0,0,8.9-7.44,16.43,16.43,0,0,0,.15-3.15V55.29l-.1-25.49-.09-12.75-.05-6.37a9,9,0,0,0-1.71-5.74,8.58,8.58,0,0,0-4.93-3.29,10.84,10.84,0,0,0-3-.26l-3.18,0L316,1.51q-51,.39-102,.2l-51-.28-25.5-.14L112,1.22c-34-.1-68,0-102,.21a8.75,8.75,0,0,0-5.5,2A8.68,8.68,0,0,0,1.61,8.5l-.11.74,0,.74v4.77l0,6.38.11,25.49.06,12.75,0,6.37a8.6,8.6,0,0,0,1.62,5.48A8.21,8.21,0,0,0,8,74.37a10.33,10.33,0,0,0,2.94.26h3.19l12.74,0q51-.1,102-.09t102,.37l51,.38Z"/><text class="cls-2" transform="translate(19.45 51.55)">GET <tspan class="cls-3" x="73.18" y="0">L</tspan><tspan x="89.58" y="0">OGO QUOTE</tspan></text></g></g></svg>