<svg xmlns="http://www.w3.org/2000/svg" viewBox="0 0 309.94 72.4"><defs><style>.cls-1,.cls-2{fill:#231f20;}.cls-2{font-size:38px;font-family:Sansation-Bold, Sansation;font-weight:700;}</style></defs><title>Asset 1</title><g id="Layer_2" data-name="Layer 2"><g id="Layer_1-2" data-name="Layer 1"><path class="cls-1" d="M300.34,71.45l-46.4.17L207.53,72q-46.41.42-92.81.38t-92.81-.09l-11.61,0a10.81,10.81,0,0,1-3.12-.42,10.64,10.64,0,0,1-2.86-1.38,10,10,0,0,1-3.77-5A9.8,9.8,0,0,1,0,62.36V59.44l0-5.8L.09,42,.2,18.84l0-5.8,0-2.9a10.48,10.48,0,0,1,.47-3A9.81,9.81,0,0,1,10.05.33c30.93.16,61.87.3,92.81.2l23.2-.06L149.27.32l46.4-.27q46.41-.15,92.81.2l11.61.09a9.92,9.92,0,0,1,5.74,1.76,9.63,9.63,0,0,1,3.6,4.79,9.19,9.19,0,0,1,.51,3v2.91l0,5.8-.09,11.6-.1,23.21,0,5.8v2.9a10.44,10.44,0,0,1-.45,2.89,9.37,9.37,0,0,1-8.89,6.47Zm0-.2a9.16,9.16,0,0,0,5.35-1.78A9.06,9.06,0,0,0,309,64.9c.6-1.82.37-3.78.41-5.71l0-5.8-.1-23.21-.09-11.6,0-5.8,0-2.89a8.62,8.62,0,0,0-.51-2.71,8.79,8.79,0,0,0-3.32-4.28,8.91,8.91,0,0,0-5.19-1.49l-11.61.1q-46.4.39-92.81.2l-46.4-.27-23.21-.15-23.2-.07c-30.94-.1-61.88,0-92.81.21a8.66,8.66,0,0,0-8.19,6,9.7,9.7,0,0,0-.39,2.68V13l0,5.8L1.62,42l.06,11.6,0,5.8,0,2.89a7.8,7.8,0,0,0,.48,2.57,8.32,8.32,0,0,0,8.09,5.53l11.61,0q46.4-.12,92.81-.09t92.81.37l46.41.38Z"/><text class="cls-2" transform="translate(52.08 51.08)">View Profile</text></g></g></svg>