<svg xmlns="http://www.w3.org/2000/svg" viewBox="0 0 296.04 52.35"><defs><style>.cls-1{font-size:38px;fill:#414042;font-family:Sansation-Bold, Sansation;font-weight:700;}.cls-2{letter-spacing:-0.07em;}.cls-3{fill:#231f20;}</style></defs><title>Asset 4</title><g id="Layer_2" data-name="Layer 2"><g id="Layer_1-2" data-name="Layer 1"><text class="cls-1" transform="translate(26.89 40.68)">GET S<tspan class="cls-2" x="100.99" y="0">T</tspan><tspan x="118.34" y="0">ARTED</tspan></text><path class="cls-3" d="M286.55,51.39l-42.18.18L202.19,52q-42.19.42-84.37.37c-28.13.07-56.25,0-84.37-.09l-21.09-.06c-.89,0-1.74,0-2.66,0a10.37,10.37,0,0,1-2.83-.49,10.13,10.13,0,0,1-4.66-3.24A10,10,0,0,1,.05,43.18c-.07-1,0-1.85,0-2.72V37.82L.13,16.73l0-5.28V10.14a13.2,13.2,0,0,1,.11-1.4,9.76,9.76,0,0,1,.78-2.69A9.78,9.78,0,0,1,10,.33c28.12.16,56.24.3,84.37.2L115.44.47,136.53.32,178.72.05q42.18-.15,84.36.2l21.1.19c.88,0,1.74,0,2.64,0A9.59,9.59,0,0,1,294,4.06a10.07,10.07,0,0,1,1.38,2.35A9.91,9.91,0,0,1,296,9.05c.07.91,0,1.78,0,2.66l0,2.64c-.08,7-.07,14.06-.1,21.09l0,5.28a18.17,18.17,0,0,1-.1,2.65,9.26,9.26,0,0,1-.74,2.56,9.34,9.34,0,0,1-8.5,5.46Zm0-.2a9.13,9.13,0,0,0,8.26-5.37,8.73,8.73,0,0,0,.7-2.49,18.87,18.87,0,0,0,.09-2.61l0-5.28c0-7,0-14.06-.1-21.09l0-2.64c0-.87,0-1.76-.08-2.6a9.05,9.05,0,0,0-.65-2.45,9.2,9.2,0,0,0-1.32-2.16,8.93,8.93,0,0,0-4.13-2.79,8.75,8.75,0,0,0-2.48-.4c-.85,0-1.75,0-2.62,0l-21.1.19q-42.18.39-84.36.2l-42.19-.27-21.09-.15L94.35,1.22c-28.13-.1-56.25,0-84.37.21A8.64,8.64,0,0,0,2.15,6.55a8.37,8.37,0,0,0-.66,2.36,12.29,12.29,0,0,0-.08,1.23v1.31l0,5.28.11,21.09v2.64c0,.88,0,1.78.06,2.55a9.93,9.93,0,0,0,.61,2.32,9.42,9.42,0,0,0,1.24,2A8.47,8.47,0,0,0,7.4,50a8.07,8.07,0,0,0,2.34.38c.84,0,1.75,0,2.62,0l21.09-.06c28.12-.07,56.24-.15,84.37-.09s56.24.09,84.37.37l42.18.38Z"/></g></g></svg>