<svg xmlns="http://www.w3.org/2000/svg" viewBox="0 0 197.78 52.35"><defs><style>.cls-1{font-size:38px;fill:#414042;font-family:Sansation-Bold, Sansation;font-weight:700;}.cls-2{fill:#231f20;}</style></defs><title>Asset 3</title><g id="Layer_2" data-name="Layer 2"><g id="Layer_1-2" data-name="Layer 1"><text class="cls-1" transform="translate(29.01 40.7)">WORKS</text><path class="cls-2" d="M188.13,51.41l-29.87.17L128.39,52q-29.86.42-59.74.38H38.79L23.85,52.3l-7.47,0H12.65c-1.26,0-2.42.05-3.85-.1a10.11,10.11,0,0,1-6.87-4.08A10.22,10.22,0,0,1,.25,44.37a10,10,0,0,1-.24-2c0-.66,0-1.26,0-1.89L.12,25.52.23,10.58A10.65,10.65,0,0,1,.87,6.7,9.8,9.8,0,0,1,10.08.34C30,.51,49.9.65,69.82.55L84.75.48,99.68.34,129.55.06c10,0,19.92-.11,29.87,0l14.94.08,7.46.06,3.74,0c1.25,0,2.44,0,3.8.13a9.77,9.77,0,0,1,8.2,7.57,10.67,10.67,0,0,1,.21,1.95c0,.64,0,1.25,0,1.88l-.18,14.93c-.08,5-.06,10-.1,14.93a9.51,9.51,0,0,1-2.59,6.91A9.29,9.29,0,0,1,188.13,51.41Zm0-.2a9.07,9.07,0,0,0,6.57-2.87,9.21,9.21,0,0,0,2.45-6.73c0-5,0-9.95-.09-14.93l-.18-14.93a16.24,16.24,0,0,0-.27-3.61A8.7,8.7,0,0,0,195.11,5a8.59,8.59,0,0,0-5.9-3.38l-29.79.16c-9.95.07-19.91,0-29.87,0L99.68,1.45,84.75,1.3,69.82,1.24c-19.92-.1-39.83,0-59.74.2A8.59,8.59,0,0,0,3.85,4.18a8.72,8.72,0,0,0-2.3,6.4l.11,14.94.11,14.93c0,.62,0,1.27,0,1.85A8.59,8.59,0,0,0,2,44a8.14,8.14,0,0,0,1.4,3A8.28,8.28,0,0,0,9,50.29l59.61,0q29.88,0,59.74.38l29.87.38Z"/></g></g></svg>