<svg xmlns="http://www.w3.org/2000/svg" viewBox="0 0 285.95 72.4"><defs><style>.cls-1,.cls-2{fill:#231f20;}.cls-2{font-size:38px;font-family:Sansation-Bold, Sansation;font-weight:700;}</style></defs><title>Asset 2</title><g id="Layer_2" data-name="Layer 2"><g id="Layer_1-2" data-name="Layer 1"><path class="cls-1" d="M276.3,71.45l-43.4.17L189.51,72q-43.39.42-86.8.38c-28.93.06-57.86,0-86.79-.09l-5.43,0a10.26,10.26,0,0,1-5.65-1.48A10.05,10.05,0,0,1,.93,66.41,9.73,9.73,0,0,1,.1,63.56,12.1,12.1,0,0,1,0,62.09V60.73L.12,39l.11-21.7,0-5.42c0-.91,0-1.78.07-2.77A10.3,10.3,0,0,1,1,6.35,10.35,10.35,0,0,1,2.51,3.88,10.8,10.8,0,0,1,4.64,2,10.46,10.46,0,0,1,7.24.74,10.89,10.89,0,0,1,10.08.33C39,.49,67.94.63,96.87.53l21.7-.06,21.7-.15,43.4-.27q43.4-.15,86.79.2l5.42,0a9.88,9.88,0,0,1,5.46,1.46A9.68,9.68,0,0,1,285.07,6a9.07,9.07,0,0,1,.78,2.73,11.3,11.3,0,0,1,.1,1.42l0,1.35-.18,21.7c-.07,7.23-.06,14.47-.09,21.7l0,5.43c0,.9,0,1.8-.05,2.72a9.37,9.37,0,0,1-2.08,5,10.15,10.15,0,0,1-2,1.84A10,10,0,0,1,279,71.05,10.39,10.39,0,0,1,276.3,71.45Zm0-.2a10.17,10.17,0,0,0,2.64-.41,9.37,9.37,0,0,0,2.41-1.15,9,9,0,0,0,4-6.68c.06-.88,0-1.79,0-2.69V54.89c0-7.23,0-14.47-.1-21.7l-.18-21.7a17.46,17.46,0,0,0-.12-2.64,8.37,8.37,0,0,0-.74-2.45,8.66,8.66,0,0,0-3.41-3.73,7.92,7.92,0,0,0-2.35-1,10.2,10.2,0,0,0-1.25-.22c-.43,0-.83-.05-1.3,0l-5.42.05q-43.39.39-86.79.2l-43.4-.27-21.7-.15-21.7-.07c-28.93-.1-57.86,0-86.79.21a9.65,9.65,0,0,0-2.51.38,9.66,9.66,0,0,0-2.29,1.1A9.8,9.8,0,0,0,3.42,4.63,9.35,9.35,0,0,0,2.13,6.8a9.5,9.5,0,0,0-.59,2.46c-.05.81,0,1.75,0,2.65l0,5.42L1.65,39l.11,21.7v1.36a8.14,8.14,0,0,0,.1,1.22,7.91,7.91,0,0,0,.7,2.34,8.12,8.12,0,0,0,3.22,3.57A7.61,7.61,0,0,0,8,70.16a9.74,9.74,0,0,0,1.2.22c.42,0,.79.05,1.26,0h5.43c28.93-.08,57.86-.16,86.79-.09s57.87.09,86.8.37l43.39.38Z"/><text class="cls-2" transform="translate(77.31 51.08)">Enquiry</text></g></g></svg>