<svg xmlns="http://www.w3.org/2000/svg" viewBox="0 0 43.12 44.64"><defs><style>.cls-1{fill:#414042;}.cls-2{fill:#009444;}</style></defs><title>Asset 3</title><g id="Layer_2" data-name="Layer 2"><g id="Layer_1-2" data-name="Layer 1"><path class="cls-1" d="M37,11.14A20.7,20.7,0,0,1,6.87,39.28,20.7,20.7,0,0,1,32.36,6.77c-.94,1-1.85,2.06-2.73,3.08a.53.53,0,0,1-.4-.15,15.92,15.92,0,0,0-3.39-1.54,15.74,15.74,0,0,0-9.19-.27,16.18,16.18,0,0,0-11.93,12,15.43,15.43,0,0,0,1.06,11,16.25,16.25,0,0,0,12.08,9.31,15.12,15.12,0,0,0,5.24.1,15.78,15.78,0,0,0,3.71-1,16.4,16.4,0,0,0,9.24-9.12A15.36,15.36,0,0,0,37.24,25a14.39,14.39,0,0,0-.05-3.28,17.19,17.19,0,0,0-2.37-6.53.68.68,0,0,1,0-.88c.7-1,1.36-2,2-3A1.3,1.3,0,0,1,37,11.14Z"/><path class="cls-2" d="M7.49,20.19c-.14-.06-.14-.19-.16-.3A2.5,2.5,0,0,1,8.93,17a2.78,2.78,0,0,1,2.19.12,10,10,0,0,1,2.24,1.5,30.21,30.21,0,0,1,4.43,4.82c.55.71,1.09,1.44,1.63,2.15.08.11.13.23.27.28a.2.2,0,0,0,.15-.13,69.11,69.11,0,0,1,4.56-7c1.84-2.58,3.73-5.12,5.76-7.55C31.49,9.52,32.9,8,34.35,6.45c1.66-1.73,3.4-3.37,5.22-4.94A9.08,9.08,0,0,1,41.44.18,1.23,1.23,0,0,1,42.36,0a.91.91,0,0,1,.55,1.48c-.43.55-.92,1.06-1.39,1.58A43.55,43.55,0,0,0,38,7.59c-2.22,3.17-4.42,6.35-6.49,9.63-.57.9-1.12,1.83-1.68,2.74-1.31,2.13-2.47,4.34-3.61,6.56-1.37,2.66-2.62,5.38-3.9,8.09a2.34,2.34,0,0,1-1.1,1.2,1.65,1.65,0,0,1-1.85-.29,2.42,2.42,0,0,1-.58-.8,53.58,53.58,0,0,0-4.37-7.65c-.84-1.27-1.74-2.5-2.62-3.74-.45-.65-1-1.22-1.46-1.86a10.11,10.11,0,0,0-1.18-1.28,1.77,1.77,0,0,0-.43-.28.7.7,0,0,0-1,.15A.28.28,0,0,1,7.49,20.19Z"/></g></g></svg>