<svg xmlns="http://www.w3.org/2000/svg" xmlns:xlink="http://www.w3.org/1999/xlink" viewBox="0 0 370.11 179.56"><defs><style>.cls-1{fill:#414042;}.cls-2{fill:url(#linear-gradient);}.cls-3{fill:url(#linear-gradient-2);}.cls-4{fill:url(#linear-gradient-3);}.cls-5{fill:url(#linear-gradient-4);}.cls-6{fill:url(#linear-gradient-5);}</style><linearGradient id="linear-gradient" x1="125.64" y1="97.86" x2="169.41" y2="19.42" gradientUnits="userSpaceOnUse"><stop offset="0" stop-color="#00aeef"/><stop offset="1" stop-color="#17629e"/></linearGradient><linearGradient id="linear-gradient-2" x1="252.79" y1="33.37" x2="237.87" y2="118.19" gradientUnits="userSpaceOnUse"><stop offset="0" stop-color="#17629e"/><stop offset="1" stop-color="#00aeef"/></linearGradient><linearGradient id="linear-gradient-3" x1="161.31" y1="0.75" x2="222.09" y2="113.53" xlink:href="#linear-gradient"/><linearGradient id="linear-gradient-4" x1="160.97" y1="0.93" x2="221.75" y2="113.72" xlink:href="#linear-gradient"/><linearGradient id="linear-gradient-5" x1="124.81" y1="111.94" x2="233.04" y2="52.32" xlink:href="#linear-gradient-2"/></defs><title>Asset 11</title><g id="Layer_2" data-name="Layer 2"><g id="Layer_1-2" data-name="Layer 1"><path class="cls-1" d="M14.3,178.79H0v-.56H.84c2.28,0,4.14-1.55,4.18-3.48V144c0-1.92-1.9-3.46-4.18-3.46H0V140H14.3v.55h-.83c-2.27,0-4.12,1.54-4.18,3.45v30.76c0,1.93,1.89,3.48,4.18,3.48h.83Z"/><path class="cls-1" d="M74.13,140v.56H72.91a3.78,3.78,0,0,0-4,3.31v28.63a48.59,48.59,0,0,0,.59,7.07h-.59L33.24,147.32v27.6a3.78,3.78,0,0,0,4,3.31h1.21v.56H25v-.56h1.2a3.78,3.78,0,0,0,4-3.35V146.09a40.59,40.59,0,0,0-.61-6.93h.65l35.59,32.23V143.9c0-1.85-1.83-3.35-4-3.35h-1.2V140Z"/><path class="cls-1" d="M111.14,140.61v4.63h-.65v-.82a3,3,0,0,0-3.16-2.73H93.5v17.13h11a3,3,0,0,0,3.16-2.73v-.81h.64V164h-.64v-.81a3,3,0,0,0-3.1-2.73H93.5v14.26c0,1.93,1.9,3.48,4.19,3.48h.83v.56H84.23v-.56h.83c2.28,0,4.14-1.55,4.18-3.48v-31c0-1.79-2-3.18-4.16-3.18h-.83V140h19.1a33,33,0,0,0,7.79-1Z"/><path class="cls-1" d="M137.8,178.79H123.5v-.56h.83c2.28,0,4.14-1.55,4.18-3.48V144c-.05-1.92-1.9-3.46-4.18-3.46h-.83V140h14.3v.55H137c-2.27,0-4.12,1.54-4.18,3.45v30.76c0,1.93,1.89,3.48,4.18,3.48h.83Z"/><path class="cls-1" d="M197.63,140v.56h-1.21a3.78,3.78,0,0,0-4,3.31v28.63a48.59,48.59,0,0,0,.59,7.07h-.59l-35.64-32.24v27.6a3.78,3.78,0,0,0,4,3.31H162v.56H148.53v-.56h1.2a3.78,3.78,0,0,0,4-3.35V146.09a41.24,41.24,0,0,0-.6-6.93h.64l35.59,32.23V143.9c0-1.85-1.83-3.35-4-3.35h-1.2V140Z"/><path class="cls-1" d="M275.48,140c7.92,0,12.77,4,12.77,10.42,0,5.36-4.82,10.56-11.1,10.56a15,15,0,0,1,4.67,3.9s5.64,6.83,8.17,9.17,5.05,4.16,8.89,4.19v.56h-3.59a14.9,14.9,0,0,1-11.4-4.86c-.74-.76-8.11-9.84-8.61-10.38-1.71-1.82-3.61-3.74-6-3.74v-.51s1.48,0,3.45,0c3.39-.08,8.35-.76,10.2-5.75a9.79,9.79,0,0,0,.42-3.32c-.16-5-3.24-8.22-8.11-8.45-3.33-.15-7.29,0-8.14,0v33c0,1.93,1.9,3.48,4.19,3.48h.83v.56H257.85v-.56h.83a3.92,3.92,0,0,0,4.18-3.46V144c0-1.93-1.9-3.49-4.18-3.49h-.83V140Z"/><path class="cls-1" d="M329.74,139.94a33.17,33.17,0,0,0,7.87-1v7H337v-1a3.61,3.61,0,0,0-3.73-3.3H320.84v33.19c.07,1.91,1.92,3.44,4.19,3.44h.82v.56h-14.3v-.56h.82a3.94,3.94,0,0,0,4.19-3.39V141.6h-12.4a3.6,3.6,0,0,0-3.72,3.3v1h-.66v-7a33.24,33.24,0,0,0,7.87,1Z"/><path class="cls-1" d="M366.83,162.44a8.13,8.13,0,0,1,3.28,6.76c0,6.13-4.72,10.36-12.24,10.36-3.2,0-8.49-.77-11.06-3a14.41,14.41,0,0,1,.76-7.72h.57c-.66,5.71,3.61,9.36,9.42,9.09,4.77-.22,8.76-3,8.76-7.43a6.32,6.32,0,0,0-2.56-5.16l-12.52-9.86a8.68,8.68,0,0,1-3.54-6.87c0-4.67,4-9.36,11.48-9.36a32.54,32.54,0,0,1,5.61.57h2.59v6.8h-.63c0-3.55-3.28-5.71-7.36-5.71-4.81,0-8,3-8,6.37a6.49,6.49,0,0,0,2.63,5.11Z"/><path class="cls-1" d="M250.18,178.23a6.54,6.54,0,0,1-5.74-3.49L227,139.22h-.59c0,1.22-2.42,5.7-2.42,5.7l-14.82,29.83a6.54,6.54,0,0,1-5.72,3.48h-.59v.56H216v-.55h-.57c-1.68,0-3.42-1.25-2.5-3.45l4.38-9.47.77-1.66,8.22-17.79,7.87,17.79.74,1.66,4.18,9.44c1,2.22-.8,3.48-2.48,3.48H236v.55h14.72v-.56Z"/><path class="cls-2" d="M112.66,95.21S152.3,64.32,158.13,1.08L182,0s1.21,49.11-33.76,90.82C148.26,90.86,130,101.4,112.66,95.21Z"/><path class="cls-3" d="M221.07,119.79S241.34,103,244.63,74.51C246.42,59,242.13,47.68,233,29.23l25.16,10.1s22.05,47.28-11.92,80.46Z"/><path class="cls-4" d="M195.27,55.55c.45-.36.88-.73,1.32-1.1A156.5,156.5,0,0,1,182,0s-14.42-.36-23.89,1c0,0-.27,31.82,18.55,67.31A127.06,127.06,0,0,0,195.27,55.55Z"/><path class="cls-5" d="M210.54,77.43a139.94,139.94,0,0,1-19.93,12.73,158.47,158.47,0,0,0,27.26,27.78s8.34-5.76,14.81-18.14C232.68,99.8,222.1,92.79,210.54,77.43Z"/><path class="cls-6" d="M230.4,31.09S195.72,94.91,112.66,95.21c0,0,1.17,10.49,15.74,22.73,0,0,60.62.58,112.2-60.62A125.63,125.63,0,0,0,230.4,31.09Z"/></g></g></svg>